<?xml version="1.0" encoding="utf-8"?>
<!-- Generator: Adobe Illustrator 18.1.1, SVG Export Plug-In . SVG Version: 6.00 Build 0)  -->
<!DOCTYPE svg PUBLIC "-//W3C//DTD SVG 1.1//EN" "http://www.w3.org/Graphics/SVG/1.1/DTD/svg11.dtd">
<svg version="1.1" id="Lady" xmlns="http://www.w3.org/2000/svg" xmlns:xlink="http://www.w3.org/1999/xlink" x="0px" y="0px"
	 viewBox="0 0 389 260.9" enable-background="new 0 0 389 260.9" xml:space="preserve">
<rect x="10.1" y="153.8" fill="#77BFA7" width="281" height="14.1"/>
<g>
	<path fill="#77BFA7" d="M182,145.4c0-2.8-2.2-5-5-5H15.1c-2.8,0-5,2.2-5,5v16.8c0,2.8,2.2,5,5,5H177c2.8,0,5-2.2,5-5V145.4z"/>
</g>
<g>
	<path fill="#77BFA7" d="M286,145.4c0-2.8-2.2-5-5-5h-94c-2.8,0-5,2.2-5,5v16.8c0,2.8,2.2,5,5,5h94c2.8,0,5-2.2,5-5V145.4z"/>
</g>
<rect x="10.1" y="161.2" fill="#2E3532" width="275.9" height="6.6"/>
<rect x="40.2" y="164.5" fill="#2E3532" width="6.6" height="92.6"/>
<rect x="251.3" y="164.5" fill="#2E3532" width="6.6" height="92.6"/>
<line fill="none" stroke="#2E3532" stroke-miterlimit="10" x1="43.5" y1="205.2" x2="148.8" y2="164.5"/>
<line fill="none" stroke="#2E3532" stroke-miterlimit="10" x1="254.6" y1="205.2" x2="149.3" y2="164.5"/>
<g>
	<g>
		<path fill="#F7DBC6" d="M285.5,142.9H34.3v-7l54-9.9c0,0,9.9-2.6,13.2,3.9c0,0,21.7-5,55.5-12.7c0,0,21.3-8.1,31.2,1.8
			c0,0,9,3.9,14.9,3.9l38.2-5.9L271,114c0,0,9.2-3.3,14.5,0l4.6,6.4l2.6,8.6L285.5,142.9z"/>
		<path fill="#F7DBC6" d="M285.5,114c0,0,7.9,7,8.6,10.9c0,0,1.5,3.2,6.6,4.6l-3.7,16.1c0,0-3.7-2.8-11.6-2.8l4.2-15.2L285.5,114z"
			/>
	</g>
	<path fill="#F2F2F2" d="M135.1,142.9v-23.1c0,0,17.4-4.5,25.1-7.2c0,0,8.8-2.9,14.9-2.1c0,0,11.7,1,13.5,5.2c0,0,6.1,3.2,13.8,4.1
		v23.1H135.1z"/>
	<g>
		<polygon fill="#E2C7B5" points="233.4,138.5 235.6,127 277.1,120.4 280.9,138.3 		"/>
		<polygon fill="#E2C7B5" points="187.9,138.5 187.5,131.8 234.1,127.7 233.4,138.3 		"/>
		<circle fill="#E2C7B5" cx="234.8" cy="133.2" r="5.5"/>
		<path fill="#E2C7B5" d="M287.3,128c0.7,5.1-2.5,9.8-7.1,10.5c-4.6,0.6-8.9-3-9.6-8.1c-0.7-5.1,2.5-9.8,7.1-10.5
			C282.3,119.2,286.6,122.8,287.3,128z"/>
		<circle fill="#E2C7B5" cx="188.5" cy="135.2" r="3.2"/>
	</g>
	<g>
		<circle fill="#F7DBC6" cx="315.9" cy="139.6" r="20.8"/>
		<g>
			<defs>
				<circle id="SVGID_483_" cx="315.9" cy="139.6" r="20.8"/>
			</defs>
			<clipPath id="SVGID_2_">
				<use xlink:href="#SVGID_483_"  overflow="visible"/>
			</clipPath>
			<path clip-path="url(#SVGID_2_)" fill="#141414" d="M298.1,128.9c0,0,6,5,12.4,3.4c0,0,3.4-3.8,5.9-1.3c0,0,2.4,2,0.9,4.3
				c0,0-0.2,1.7-1.9,2.1c0,0,7.9,5.7,16.2-1.2c0,0-2.1,8.4,1.4,15.2l37.3-16.3l-24.8-45.4l-42.5,3c0,0-20.6,10.1-20.4,11.2
				C282.9,105,298.1,128.9,298.1,128.9z"/>
		</g>
	</g>
</g>
<g>
	<path fill="#77BFA7" d="M341.7,154.1c0.4-2.7-1.4-5.3-4.1-5.7l-44.6-7.2c-2.7-0.4-5.3,1.4-5.7,4.1l-2.6,16.3
		c-0.4,2.7,1.4,5.3,4.1,5.7l44.6,7.2c2.7,0.4,5.3-1.4,5.7-4.1L341.7,154.1z"/>
</g>
<rect x="284" y="165.4" transform="matrix(0.9871 0.1601 -0.1601 0.9871 31.0246 -47.5815)" fill="#2E3532" width="53.6" height="6.6"/>
<path fill="#E2C7B5" d="M187.3,140.3L187.3,140.3l-8.4,5.1c0,0,0,0-0.1,0l-0.4,0.2l0,0c-0.3,0.1-0.6,0.2-0.9,0.2c-1-0.1-1.8-1-1.7-2
	c0.1-0.6,0.4-1.1,0.9-1.4l0,0l2.9-2.3l-3.1-0.3l-1-0.1l-6.5-0.6c0,0,0,0-0.1,0c-0.7-0.1-1.3-0.7-1.2-1.5c0.1-0.7,0.7-1.3,1.5-1.2
	c0,0,0,0,0,0l6.5,0.6l0-0.4l-9.4-0.8c0,0,0,0-0.1,0c-0.7-0.1-1.3-0.7-1.2-1.5s0.7-1.3,1.5-1.2c0,0,0,0,0,0l9.4,0.8l0-0.3l-8.2-0.7
	c0,0,0,0-0.1,0c-0.7-0.1-1.3-0.7-1.2-1.5c0.1-0.7,0.7-1.3,1.5-1.2c0,0,0,0,0,0l8.2,0.7l0-0.4l-5.5-0.5l0,0c-0.1,0-0.2,0-0.3,0
	c-0.7-0.1-1.3-0.7-1.2-1.5c0.1-0.7,0.7-1.3,1.5-1.2c0.1,0,0.2,0.1,0.3,0.1l0-0.1l5.5,0.5l1,0.1l7.1,0.6c3.4,0.3,6,3.3,5.7,6.8
	C190.2,137.5,189,139.3,187.3,140.3z"/>
<g>
	<polygon fill="#EFD9CB" points="274.6,112.9 267.8,107 279.8,74.3 291.8,78.4 	"/>
	<polygon fill="#EFD9CB" points="234.3,88.2 237.5,84.2 275,107.9 269.1,115.5 	"/>
	<circle fill="#EFD9CB" cx="270.7" cy="113" r="3.2"/>
	<circle fill="#EFD9CB" cx="237" cy="86.7" r="2.7"/>
</g>
<path fill="#2E2E2E" d="M303,59.5c1.1-3.5-1.2-7.3-5.1-8.6l-1.7-0.6c-4-1.3-8.1,0.5-9.2,4l-11.1,23.3l16,6.3L303,59.5z"/>
<path fill="#1C1C1C" d="M287.5,53.7l-1.3-5c0,0,6-9.2,12.4-10.5l3.5,4.4C302,42.6,290.8,53.5,287.5,53.7z"/>
<polygon fill="#E2C7B5" points="288.3,45 290.5,47.4 298.5,43.4 295.1,38.2 "/>
<path fill="#2E2E2E" d="M379.3,107.8l-17.1-18.2l-14.7-1.9l-0.2-0.1l-14,12.5l11.4,16.2c0,0,4,4.4,4,14v16.5v101.8h14.4l20.6-120.8
	C384.7,121.1,384.4,112.9,379.3,107.8z"/>
<path fill="#404040" d="M340.5,110.2L318.9,91l-21.5-14.3c-6-3-5.6-13.4-5.6-13.4c-0.1-1.6-2.3-9.2-2.3-12.2l13-11.2l5.7,1.8
	c6,1,10.5,4.6,13.8,8.2v0l40.3,39.7L351.6,99L340.5,110.2z"/>
<path fill="#2E2E2E" d="M320.3,59.5c1.1-3.5-1.2-7.3-5.1-8.6l-1.7-0.6c-4-1.3-8.1,0.5-9.2,4l-12.4,27.2l18.3,7.3L320.3,59.5z"/>
<g>
	<polygon fill="#F7E7DC" points="290.6,118.9 283.8,113 295.8,80.3 307.8,84.4 	"/>
	<polygon fill="#F7E7DC" points="250.3,94.2 253.5,90.1 291,113.9 285.1,121.4 	"/>
	<circle fill="#F7E7DC" cx="286.7" cy="118.9" r="3.2"/>
	<circle fill="#F7E7DC" cx="253" cy="92.6" r="2.7"/>
</g>
<path fill="#2E2E2E" d="M288.6,48.9l2.1,4.8c0,0,12.2-7.4,11.9-13.7l-4-1.7C298.5,38.2,296.2,43.5,288.6,48.9z"/>
<g>
	<circle fill="#F7E7DC" cx="279.1" cy="27.3" r="20.8"/>
	<g>
		<defs>
			<circle id="SVGID_485_" cx="279.1" cy="27.3" r="20.8"/>
		</defs>
		<clipPath id="SVGID_4_">
			<use xlink:href="#SVGID_485_"  overflow="visible"/>
		</clipPath>
		<path clip-path="url(#SVGID_4_)" fill="#FFDC73" d="M299.6,30.7c0,0-7.9,0-11.7-5.4c0,0-0.1-5.1-3.7-4.8c0,0-3.1,0-3.5,2.7
			c0,0-1,1.5,0.1,2.9c0,0-9.7-0.7-11.6-11.4c0,0-3.8,7.7-10.9,10.7l-18-36.5l48.2-18.7l30.5,29.7c0,0,9.2,21.1,8.4,21.7
			C326.6,22.2,299.6,30.7,299.6,30.7z"/>
	</g>
</g>
<g>
	<path fill="#2E2E2E" d="M361.5,244.5c0,0,5-0.5,5,13.3h-36.2v-2.5c0,0-0.7-4.3,10.5-6.2c0,0,9.5-2.3,11.5-4.7c0,0,2.7-0.7,3.5,1.5
		c0,0,0.3,1.5,2.2,1.5C358,247.5,361.2,248.3,361.5,244.5z"/>
	<rect x="330.3" y="254.8" fill="#AAAAAA" width="36.1" height="3"/>
</g>
<path fill="#EFD9CB" d="M245.3,86.2L245.3,86.2l-2.8-9.4c0,0,0,0,0-0.1l-0.1-0.4l0,0c-0.1-0.3-0.3-0.5-0.6-0.7
	c-0.8-0.6-2-0.4-2.6,0.4c-0.4,0.5-0.4,1.1-0.3,1.6l0,0l0.7,3.7l-2.5-1.8l-0.8-0.6l-5.2-3.9c0,0,0,0,0,0c-0.6-0.4-1.5-0.3-1.9,0.3
	c-0.4,0.6-0.3,1.5,0.3,1.9c0,0,0,0,0,0l5.2,3.9l-0.2,0.3l-7.5-5.6c0,0,0,0,0,0c-0.6-0.4-1.5-0.3-1.9,0.3s-0.3,1.5,0.3,1.9
	c0,0,0,0,0,0l7.5,5.6l-0.2,0.3l-6.6-4.9c0,0,0,0,0,0c-0.6-0.4-1.5-0.3-1.9,0.3c-0.4,0.6-0.3,1.5,0.3,1.9c0,0,0,0,0,0l6.6,4.9
	l-0.3,0.4l-4.4-3.3l0,0c-0.1-0.1-0.1-0.2-0.2-0.2c-0.6-0.4-1.5-0.3-1.9,0.3c-0.4,0.6-0.3,1.5,0.3,1.9c0.1,0.1,0.2,0.1,0.3,0.1l0,0.1
	l4.4,3.3L230,89l5.7,4.2c2.8,2.1,6.7,1.5,8.8-1.3C245.7,90.2,245.9,88.1,245.3,86.2z"/>
<path fill="#F7E7DC" d="M258.5,90.7L258.5,90.7l-2.8-9.4c0,0,0,0,0-0.1l-0.1-0.4l0,0c-0.1-0.3-0.3-0.5-0.6-0.7
	c-0.8-0.6-2-0.4-2.6,0.4c-0.4,0.5-0.4,1.1-0.3,1.6l0,0l0.7,3.7l-2.5-1.8l-0.8-0.6l-5.2-3.9c0,0,0,0,0,0c-0.6-0.4-1.5-0.3-1.9,0.3
	c-0.4,0.6-0.3,1.5,0.3,1.9c0,0,0,0,0,0l5.2,3.9l-0.2,0.3l-7.5-5.6c0,0,0,0,0,0c-0.6-0.4-1.5-0.3-1.9,0.3s-0.3,1.5,0.3,1.9
	c0,0,0,0,0,0l7.5,5.6l-0.2,0.3l-6.6-4.9c0,0,0,0,0,0c-0.6-0.4-1.5-0.3-1.9,0.3c-0.4,0.6-0.3,1.5,0.3,1.9c0,0,0,0,0,0l6.6,4.9
	l-0.3,0.4l-4.4-3.3l0,0c-0.1-0.1-0.1-0.2-0.2-0.2c-0.6-0.4-1.5-0.3-1.9,0.3c-0.4,0.6-0.3,1.5,0.3,1.9c0.1,0.1,0.2,0.1,0.3,0.1l0,0.1
	l4.4,3.3l0.8,0.6l5.7,4.2c2.8,2.1,6.7,1.5,8.8-1.3C258.8,94.7,259.1,92.6,258.5,90.7z"/>
<path fill="#F7DBC6" d="M6.7,147.1c0.8,0.2,2.5-1.6,2.5-1.6c0.9,0.4,5.3-1.2,5.3-1.2c2.5,0.2,14.3-1.1,14.3-1.1
	c0.7,0.3,6.6-1.2,7.3-0.6l4.1-3.5c-1.1-2.2-1-3.4-1-3.4c0.5-4.5-2.8-7.5-2.8-7.5c-3.8-4.2-10.1,2.6-10.1,2.6c-1.1,1.8-4,3.4-4,3.4
	c-2.1,1.3-7.4,2.7-7.4,2.7c-3.6,1-4.8,3.5-4.8,3.5C3,143.4,6.7,147.1,6.7,147.1z"/>
</svg>
