<?xml version="1.0" encoding="utf-8"?>
<!-- Generator: Adobe Illustrator 18.1.1, SVG Export Plug-In . SVG Version: 6.00 Build 0)  -->
<!DOCTYPE svg PUBLIC "-//W3C//DTD SVG 1.1//EN" "http://www.w3.org/Graphics/SVG/1.1/DTD/svg11.dtd">
<svg version="1.1" id="Lady" xmlns="http://www.w3.org/2000/svg" xmlns:xlink="http://www.w3.org/1999/xlink" x="0px" y="0px"
	 viewBox="0 0 670.5 375.5" enable-background="new 0 0 670.5 375.5" xml:space="preserve">
<g>
	<defs>
		<rect id="SVGID_523_" x="6.5" y="31.9" width="657.5" height="212.9"/>
	</defs>
	<clipPath id="SVGID_2_">
		<use xlink:href="#SVGID_523_"  overflow="visible"/>
	</clipPath>
	<g clip-path="url(#SVGID_2_)">
		<path fill="#541D02" d="M168.7,94.2c0,0-8.5-23.7,9.4-28.9c0,0,12.3-5,19.9,11c0,0,2.2,5.6,0,13.6c0,0-2.2,6.7,2.4,9.2
			c0,0-5.9,2.9-9-6.6c0,0,0.2-9.3-6.1-7.9c0,0-6.6,2.2-5.5,11.3C179.9,95.8,172.5,98.9,168.7,94.2z"/>
		<path fill="#FF8A5C" d="M173.6,94.5c-14.1-0.3-13.1,10.5-13.1,10.5l13.1-2l13.1,2C186.7,105,187.7,94.3,173.6,94.5z"/>
		<circle fill="#BB7B52" cx="173.6" cy="147" r="44"/>
		<path fill="#541D02" d="M189.7,106.1c0,0,2.1,31,27.5,35.2C217.2,141.3,215.6,115.5,189.7,106.1z"/>
		<path fill="#541D02" d="M150.9,150.8c0,0,45.5-1.7,38.8-44.7c0,0,0,0-3.6-1.1"/>
		<g>
			<circle fill="#F7E7DC" cx="4.4" cy="146.7" r="44"/>
			<g>
				<defs>
					<circle id="SVGID_525_" cx="4.4" cy="146.7" r="44"/>
				</defs>
				<clipPath id="SVGID_4_">
					<use xlink:href="#SVGID_525_"  overflow="visible"/>
				</clipPath>
				<path clip-path="url(#SVGID_4_)" d="M44.1,141c0,0-53.1,12.5-59.7-35.2c0,0,5.9,31.7-27.2,33l-0.7-48.5l87.6-12.5l47.3,27.9
					c0,0-15,35-19,35.2C68.4,141.2,44.1,141,44.1,141z"/>
			</g>
		</g>
		<g>
			<circle fill="#F7E7DC" cx="489.6" cy="146.7" r="44"/>
			<g>
				<defs>
					<circle id="SVGID_527_" cx="489.6" cy="146.7" r="44"/>
				</defs>
				<clipPath id="SVGID_6_">
					<use xlink:href="#SVGID_527_"  overflow="visible"/>
				</clipPath>
				<rect x="434.7" y="86.7" clip-path="url(#SVGID_6_)" fill="#A86642" width="177.7" height="40.6"/>
			</g>
		</g>
		<path fill="#541D02" d="M182.6,104c0,0-5.9-0.9-9-0.9c-24.3,0-44,19.7-44,44c0,0-0.6,6.7-3.9,10c0,0,20.1-2,28.9-18.1
			c0,0-1.2,8.4-3.6,11.9C150.9,150.8,189.2,152.1,182.6,104z"/>
		<path fill="#541D02" d="M150.9,150.8c0,0,49.4-7.8,36.2-45.5l-4.5-1.4l-13.2,23.2L150.9,150.8z"/>
		<path fill="#541D02" d="M652,94.2c0,0-8.5-23.7,9.4-28.9c0,0,12.3-5,19.9,11c0,0,2.2,5.6,0,13.6c0,0-2.2,6.7,2.4,9.2
			c0,0-5.9,2.9-9-6.6c0,0,0.2-9.3-6.1-7.9c0,0-6.6,2.2-5.5,11.3C663.1,95.8,655.8,98.9,652,94.2z"/>
		<path fill="#FF8A5C" d="M656.8,94.5c-14.1-0.3-13.1,10.5-13.1,10.5l13.1-2l13.1,2C669.9,105,670.9,94.3,656.8,94.5z"/>
		<circle fill="#BB7B52" cx="656.8" cy="147" r="44"/>
		<path fill="#541D02" d="M634.1,150.8c0,0,45.5-1.7,38.8-44.7c0,0,0,0-3.6-1.1"/>
		<path fill="#541D02" d="M665.8,104c0,0-5.9-0.9-9-0.9c-24.3,0-44,19.7-44,44c0,0-0.6,6.7-3.9,10c0,0,20.1-2,28.9-18.1
			c0,0-1.2,8.4-3.6,11.9C634.1,150.8,672.5,152.1,665.8,104z"/>
		<path fill="#541D02" d="M634.1,150.8c0,0,49.4-7.8,36.2-45.5l-4.5-1.4l-13.2,23.2L634.1,150.8z"/>
	</g>
</g>
<g>
	<circle fill="#F7E7DC" cx="332.1" cy="146.7" r="63.6"/>
	<g>
		<defs>
			<circle id="SVGID_529_" cx="332.1" cy="146.7" r="63.6"/>
		</defs>
		<clipPath id="SVGID_8_">
			<use xlink:href="#SVGID_529_"  overflow="visible"/>
		</clipPath>
		<path clip-path="url(#SVGID_8_)" fill="#FFDC73" d="M269.1,138.4c0,0,76.8,18.1,86.2-50.9c0,0-8.5,45.9,39.3,47.7l1-70.1
			l-126.6-18l-68.3,40.4c0,0,21.7,50.6,27.4,50.9C234,138.8,269.1,138.4,269.1,138.4z"/>
	</g>
</g>
<g>
	<g>
		<path fill="#6F6F6F" d="M421.8,56C372.4,6.6,292,6.6,242.6,56s-49.4,129.8,0,179.2c46.7,46.7,121.1,49.2,170.8,7.6l20.1,20.1
			c-6.2,9.4-5.2,22.2,3.1,30.5l63.7,63.7c9.5,9.5,24.8,9.5,34.3,0l9.2-9.2c9.5-9.5,9.5-24.8,0-34.3L480,250
			c-8.3-8.3-21.1-9.3-30.5-3.1l-20.1-20.1C471,177.1,468.5,102.8,421.8,56z M258.6,219.2C218,178.7,218,112.6,258.6,72
			s106.6-40.6,147.2,0s40.6,106.6,0,147.2S299.1,259.8,258.6,219.2z"/>
	</g>
</g>
</svg>
